HIERARCHY
ROOT Hips
{
	OFFSET -3.958830 18.904000 13.208200
	CHANNELS 6 Xposition Yposition Zposition Zrotation Yrotation Xrotation 
	JOINT LHipJoint
	{
		OFFSET 0.000000 0.000000 0.000000
		CHANNELS 3 Zrotation Yrotation Xrotation
		JOINT LeftUpLeg
		{
			OFFSET 1.800000 -1.400000 0.085000
			CHANNELS 3 Zrotation Yrotation Xrotation
			JOINT LeftLeg
			{
				OFFSET 2.215000 -6.000000 0.000000
				CHANNELS 3 Zrotation Yrotation Xrotation
				JOINT LeftFoot
				{
					OFFSET 2.500000 -6.900000 0.000000
					CHANNELS 3 Zrotation Yrotation Xrotation
					JOINT LeftToeBase
					{
						OFFSET 0.200000 -0.500000 1.950000
						CHANNELS 3 Zrotation Yrotation Xrotation
						End Site
						{
							OFFSET 0.000000 0.000000 0.000000
						}
					}
				}
			}
		}
	}
	JOINT RHipJoint
	{
		OFFSET 0.000000 0.000000 0.000000
		CHANNELS 3 Zrotation Yrotation Xrotation
		JOINT RightUpLeg
		{
			OFFSET -1.800000 -1.400000 0.085000
			CHANNELS 3 Zrotation Yrotation Xrotation
			JOINT RightLeg
			{
				OFFSET -2.215000 -6.000000 0.000000
				CHANNELS 3 Zrotation Yrotation Xrotation
				JOINT RightFoot
				{
					OFFSET -2.500000 -6.900000 0.000000
					CHANNELS 3 Zrotation Yrotation Xrotation
					JOINT RightToeBase
					{
						OFFSET -0.200000 -0.500000 1.950000
						CHANNELS 3 Zrotation Yrotation Xrotation
						End Site
						{
							OFFSET 0.000000 0.000000 0.000000
						}
					}
				}
			}
		}
	}
	JOINT LowerBack
	{
		OFFSET 0.000000 0.000000 0.000000
		CHANNELS 3 Zrotation Yrotation Xrotation
		JOINT Spine
		{
			OFFSET -0.087000 1.940000 -0.288900
			CHANNELS 3 Zrotation Yrotation Xrotation
			JOINT Spine1
			{
				OFFSET 0.000000 1.950000 0.060000
				CHANNELS 3 Zrotation Yrotation Xrotation
				JOINT Neck
				{
					OFFSET 0.000000 0.000000 0.000000
					CHANNELS 3 Zrotation Yrotation Xrotation
					JOINT Neck1
					{
						OFFSET 0.000000 1.600000 0.340000
						CHANNELS 3 Zrotation Yrotation Xrotation
						JOINT Head
						{
							OFFSET 0.000000 1.667000 -0.240000
							CHANNELS 3 Zrotation Yrotation Xrotation
							End Site
							{
								OFFSET 0.000000 0.000000 0.000000
							}
						}
					}
				}
				JOINT LeftShoulder
				{
					OFFSET 0.000000 0.000000 0.000000
					CHANNELS 3 Zrotation Yrotation Xrotation
					JOINT LeftArm
					{
						OFFSET 2.700000 1.550000 -0.730000
						CHANNELS 3 Zrotation Yrotation Xrotation
						JOINT LeftForeArm
						{
							OFFSET 5.450000 0.000000 0.000000
							CHANNELS 3 Zrotation Yrotation Xrotation
							JOINT LeftHand
							{
								OFFSET 3.450000 0.000000 0.000000
								CHANNELS 3 Zrotation Yrotation Xrotation
								JOINT LeftHandIndex1
								{
									OFFSET 0.750000 0.000000 0.000000
									CHANNELS 3 Zrotation Yrotation Xrotation
									End Site
									{
										OFFSET 0.000000 0.000000 0.000000
									}
								}
							}
						}
					}
				}
				JOINT RightShoulder
				{
					OFFSET 0.000000 0.000000 0.000000
					CHANNELS 3 Zrotation Yrotation Xrotation
					JOINT RightArm
					{
						OFFSET -2.700000 1.550000 -0.730000
						CHANNELS 3 Zrotation Yrotation Xrotation
						JOINT RightForeArm
						{
							OFFSET -5.450000 0.000000 0.000000
							CHANNELS 3 Zrotation Yrotation Xrotation
							JOINT RightHand
							{
								OFFSET -3.450000 0.000000 0.000000
								CHANNELS 3 Zrotation Yrotation Xrotation
								JOINT RightHandIndex1
								{
									OFFSET -0.750000 0.000000 0.000000
									CHANNELS 3 Zrotation Yrotation Xrotation
									End Site
									{
										OFFSET 0.000000 0.000000 0.000000
									}
								}
							}
						}
					}
				}
			}
		}
	}
}
MOTION
Frames: 7
Frame Time: 0.016667
-0.137400 17.461320 -3.563800 2.077220 -32.301312 2.997174 -15.354495 11.920039 5.396409 4.434262 -12.083467 -37.564575 -15.703482 15.571227 48.408954 -0.336574 10.865529 0.983233 0.317470 -0.270560 0.235500 18.317954 -9.747371 2.259079 -7.053171 3.997299 -24.168301 6.133773 -10.747867 39.565151 -0.754066 -6.150829 2.545683 0.143190 0.627440 0.121500 -3.562573 -2.793136 -8.186942 13.861435 -3.079086 28.267309 0.187032 0.517472 8.593052 -0.233760 -10.050836 -8.897417 -19.741354 12.925893 23.467150 -15.487830 10.766600 -30.008670 -18.074705 -2.201416 1.653636 -8.704506 8.787237 -4.626455 130.305880 -65.998948 -119.120240 -4.176111 2.177117 1.321510 0.287620 -0.191230 0.266010 18.017696 9.180527 6.417111 37.088173 -2.787507 -12.533618 61.848854 57.643241 25.908999 1.328518 -1.351708 -0.925020 0.883450 0.351890 -0.629370 
-0.072100 17.409470 -3.524670 1.706203 -31.463393 5.438620 -15.266624 11.944546 5.146120 4.684759 -10.313001 -38.438546 -15.050052 12.354767 38.982406 -0.956389 8.888263 1.615552 0.325400 -0.249600 0.206610 18.388799 -9.941212 2.331113 -5.440210 4.163432 -23.497387 5.744934 -9.956478 37.631974 -0.658666 -5.852195 2.646141 0.223170 0.720210 0.151990 -3.790529 -2.410032 -7.909791 14.933024 -2.017614 22.664844 0.553253 0.838641 10.303609 -0.928724 -9.671750 -8.385908 -18.729855 13.240901 22.609657 -14.579610 10.813820 -27.633840 -16.665964 -0.630801 1.593229 -8.572955 8.186864 -2.823123 114.374565 -65.832417 -96.252810 -4.302840 1.278302 1.282390 0.394350 -0.250450 0.271860 17.765584 7.267659 5.789209 36.592302 -3.626010 -11.780673 63.122425 55.814815 25.486200 1.212715 -1.394400 -0.968410 0.929570 0.402180 -0.638080 
-0.016870 17.330030 -3.494830 1.250675 -31.724500 7.696035 -15.189402 11.962309 4.944887 5.544704 -8.523671 -39.134395 -15.136342 10.026648 29.785201 -1.305545 7.207805 2.250601 0.351930 -0.183300 0.179690 18.453195 -10.109232 2.356441 -3.667513 4.179450 -22.658344 4.640068 -8.491873 34.496410 -0.495871 -5.263425 2.884304 0.300010 0.821530 0.116120 -4.010016 -2.082127 -7.648292 15.668531 -0.806954 18.159800 0.899147 1.444919 10.276815 -2.040704 -9.921162 -7.839499 -19.057801 13.234226 21.260530 -11.828130 10.051820 -23.490750 -13.696789 0.939014 0.591843 -9.566733 8.626975 -3.697871 95.451636 -69.505010 -70.107343 -3.817587 -0.143157 1.167450 0.470780 -0.326680 0.323250 16.676696 5.770899 5.798952 36.344213 -5.126835 -10.755993 65.109066 51.966436 24.176192 1.170893 -1.488713 -0.982200 0.987470 0.370050 -0.587060 
0.042350 17.273980 -3.469630 1.401720 -30.866122 9.140138 -15.177625 12.005063 4.831571 5.405166 -7.731783 -39.713755 -14.057639 7.885191 22.817218 -1.546441 5.866100 2.748021 0.425880 -0.068500 0.180450 18.463988 -10.223110 2.243875 -3.107190 3.422365 -20.738265 4.454442 -7.264489 28.825210 -0.334048 -4.535750 3.148597 0.387310 0.846980 0.144500 -4.025297 -2.001828 -7.375829 15.228854 0.117264 14.268369 1.472447 1.592265 10.475531 -2.607618 -9.612382 -7.247719 -18.250453 13.369982 20.058907 -11.244170 10.247200 -20.987220 -11.678999 1.540806 -0.512632 -9.903932 8.575158 -5.275514 79.205891 -71.925934 -54.287792 -3.675974 0.486588 1.074400 0.537040 -0.355760 0.372050 15.749129 4.712146 6.029526 36.299632 -6.704249 -10.064351 67.130781 50.444162 24.048174 1.124123 -1.633865 -0.945490 0.946920 0.315730 -0.557580 
0.111080 17.245650 -3.456780 1.679294 -30.177674 9.406196 -15.179106 12.003657 4.801929 5.486596 -7.460262 -40.411141 -12.615961 6.930628 20.515531 -1.646447 5.341269 2.920305 0.512540 0.038770 0.215470 18.465437 -10.302280 2.140906 -3.434775 2.687947 -18.306668 4.568111 -6.368373 23.368130 -0.251004 -4.027785 3.302969 0.461380 0.834880 0.205740 -4.015588 -1.922235 -7.233636 14.721951 0.756981 12.519977 1.756436 1.867404 10.539482 -3.009408 -9.563985 -6.733512 -18.037924 13.323323 19.322355 -11.084490 10.029400 -19.927730 -11.060628 2.556347 -0.856145 -9.879132 7.377046 -4.700685 72.703196 -69.466244 -46.975857 -3.807563 1.143216 1.012240 0.571950 -0.350660 0.394530 15.889331 3.809088 5.630649 34.355676 -6.864099 -8.834246 68.682987 48.529650 23.824620 1.091198 -1.756339 -0.886350 0.887340 0.278370 -0.541360 
0.178700 17.252590 -3.453030 1.762693 -28.366371 9.148608 -15.208344 11.947215 4.864106 5.777836 -7.808970 -41.658609 -11.168272 6.922318 22.562343 -1.631378 5.428111 2.857519 0.557820 0.120230 0.222770 18.458370 -10.255469 2.083203 -4.353340 2.168758 -16.278937 6.140595 -6.364476 19.896122 -0.254279 -3.910372 3.346600 0.501160 0.819600 0.233640 -3.958822 -1.982645 -7.220830 14.183293 0.757272 11.920513 1.954876 1.694672 10.733311 -3.171653 -9.360102 -6.402506 -17.689772 13.236695 19.405453 -11.006540 9.840080 -20.360210 -10.673541 3.172930 -0.998881 -10.633192 5.375409 -4.273729 70.213741 -66.050411 -42.742516 -3.892762 1.446485 0.982400 0.581400 -0.326450 0.405320 15.803272 3.077902 5.208992 33.824494 -6.572836 -8.379187 68.192712 47.716645 23.242973 1.071131 -1.781768 -0.840250 0.872910 0.262290 -0.523030 
0.235500 17.272520 -3.445060 1.451646 -27.584200 9.487729 -15.240059 11.804046 4.985225 6.906917 -8.187958 -43.251575 -10.224043 7.711995 27.179074 -1.604833 6.198607 2.583387 0.520110 0.070000 0.165150 18.464936 -10.135271 2.072402 -5.354962 2.278109 -16.226564 7.940751 -6.641372 18.533947 -0.228992 -3.946579 3.353915 0.512870 0.922100 0.228010 -3.967683 -1.977530 -7.255731 14.126591 0.747209 11.597374 1.753555 1.780271 10.140734 -3.587105 -9.723169 -6.328430 -18.383446 13.848384 18.316799 -9.572860 9.367800 -19.722550 -10.073388 3.952349 -0.863768 -12.854275 4.006564 -3.966788 67.966259 -62.870579 -39.345520 -4.025166 1.575361 0.988670 0.631230 -0.380970 0.415420 16.052686 2.616803 4.920654 33.877995 -6.284019 -8.065047 66.529710 47.697475 22.722868 1.011211 -1.731894 -0.901760 0.957880 0.325880 -0.518570 
